<?xml version="1.0" encoding="UTF-8" standalone="no"?>
<!DOCTYPE svg PUBLIC "-//W3C//DTD SVG 1.1//EN" "http://www.w3.org/Graphics/SVG/1.1/DTD/svg11.dtd">
<!-- Created with Vectornator (http://vectornator.io/) -->
<svg height="100%" stroke-miterlimit="10" style="fill-rule:nonzero;clip-rule:evenodd;stroke-linecap:round;stroke-linejoin:round;" version="1.1" viewBox="0 0 1920 768" width="100%" xml:space="preserve" xmlns="http://www.w3.org/2000/svg" xmlns:vectornator="http://vectornator.io" xmlns:xlink="http://www.w3.org/1999/xlink">
<defs/>
<g id="Camada-1" vectornator:layerName="Camada 1">
<g opacity="1" vectornator:layerName="Agrupar 3">
<g opacity="1" vectornator:layerName="Agrupar 3">
<path d="M727.564 544.166L742.369 544.166L742.369 547.176L731.064 547.176L731.064 554.981L741.564 554.981L741.564 557.991L731.064 557.991L731.064 568.666L727.564 568.666L727.564 544.166Z" fill="#000000" fill-rule="nonzero" opacity="1" stroke="none" vectornator:layerName="Curva"/>
<path d="M762.669 544.166L765.959 544.166L765.959 560.161C765.959 561.677 765.743 562.984 765.311 564.081C764.88 565.177 764.267 566.093 763.474 566.828C762.681 567.563 761.741 568.106 760.656 568.456C759.571 568.806 758.364 568.981 757.034 568.981C753.884 568.981 751.481 568.298 749.824 566.933C748.167 565.568 747.339 563.544 747.339 560.861L747.339 544.166L750.839 544.166L750.839 559.531C750.839 561.911 751.358 563.567 752.396 564.501C753.435 565.434 754.969 565.901 756.999 565.901C758.959 565.901 760.394 565.387 761.304 564.361C762.214 563.334 762.669 561.689 762.669 559.426L762.669 544.166Z" fill="#000000" fill-rule="nonzero" opacity="1" stroke="none" vectornator:layerName="Curva"/>
<path d="M777.299 553.091L775.199 549.661L775.059 549.661L775.479 553.091L775.479 568.666L772.189 568.666L772.189 543.816L774.149 543.816L786.644 559.706L788.639 562.961L788.814 562.961L788.394 559.706L788.394 544.166L791.684 544.166L791.684 569.016L789.724 569.016L777.299 553.091Z" fill="#000000" fill-rule="nonzero" opacity="1" stroke="none" vectornator:layerName="Curva"/>
<path d="M797.914 544.166C798.381 544.096 798.923 544.043 799.541 544.008C800.16 543.973 800.801 543.944 801.466 543.921C802.131 543.897 802.785 543.88 803.426 543.868C804.068 543.857 804.657 543.851 805.194 543.851C807.341 543.851 809.201 544.16 810.776 544.778C812.351 545.397 813.658 546.254 814.696 547.351C815.735 548.447 816.511 549.754 817.024 551.271C817.537 552.787 817.794 554.444 817.794 556.241C817.794 557.874 817.555 559.455 817.076 560.983C816.598 562.512 815.834 563.871 814.784 565.061C813.734 566.251 812.386 567.207 810.741 567.931C809.096 568.654 807.107 569.016 804.774 569.016C804.377 569.016 803.846 569.004 803.181 568.981C802.516 568.957 801.834 568.934 801.134 568.911C800.434 568.887 799.786 568.858 799.191 568.823C798.596 568.788 798.171 568.747 797.914 568.701L797.914 544.166ZM805.299 546.931C804.972 546.931 804.622 546.931 804.249 546.931C803.876 546.931 803.502 546.942 803.129 546.966C802.756 546.989 802.417 547.012 802.114 547.036C801.811 547.059 801.577 547.082 801.414 547.106L801.414 565.796C801.531 565.819 801.758 565.837 802.096 565.848C802.435 565.86 802.791 565.872 803.164 565.883C803.537 565.895 803.887 565.907 804.214 565.918C804.541 565.93 804.774 565.936 804.914 565.936C806.664 565.936 808.128 565.662 809.306 565.113C810.485 564.565 811.43 563.836 812.141 562.926C812.853 562.016 813.355 560.983 813.646 559.828C813.938 558.673 814.084 557.477 814.084 556.241C814.084 555.191 813.944 554.117 813.664 553.021C813.384 551.924 812.906 550.927 812.229 550.028C811.552 549.13 810.654 548.389 809.534 547.806C808.414 547.222 807.002 546.931 805.299 546.931Z" fill="#000000" fill-rule="nonzero" opacity="1" stroke="none" vectornator:layerName="Curva"/>
<path d="M821.854 556.416C821.854 554.409 822.105 552.618 822.606 551.043C823.108 549.468 823.831 548.138 824.776 547.053C825.721 545.968 826.876 545.14 828.241 544.568C829.606 543.997 831.152 543.711 832.879 543.711C834.722 543.711 836.338 544.02 837.726 544.638C839.115 545.257 840.27 546.12 841.191 547.228C842.113 548.337 842.801 549.672 843.256 551.236C843.711 552.799 843.939 554.526 843.939 556.416C843.939 558.422 843.688 560.213 843.186 561.788C842.685 563.363 841.956 564.693 840.999 565.778C840.042 566.863 838.881 567.692 837.516 568.263C836.151 568.835 834.606 569.121 832.879 569.121C831.012 569.121 829.391 568.812 828.014 568.193C826.637 567.575 825.494 566.712 824.584 565.603C823.674 564.495 822.991 563.159 822.536 561.596C822.081 560.032 821.854 558.306 821.854 556.416ZM825.564 556.416C825.564 557.746 825.71 558.994 826.001 560.161C826.293 561.327 826.736 562.354 827.331 563.241C827.926 564.127 828.685 564.827 829.606 565.341C830.528 565.854 831.619 566.111 832.879 566.111C835.142 566.111 836.933 565.329 838.251 563.766C839.57 562.202 840.229 559.752 840.229 556.416C840.229 555.109 840.083 553.872 839.791 552.706C839.5 551.539 839.056 550.512 838.461 549.626C837.866 548.739 837.108 548.033 836.186 547.508C835.265 546.983 834.162 546.721 832.879 546.721C830.639 546.721 828.86 547.514 827.541 549.101C826.223 550.687 825.564 553.126 825.564 556.416Z" fill="#000000" fill-rule="nonzero" opacity="1" stroke="none" vectornator:layerName="Curva"/>
<path d="M859.269 544.166C859.736 544.096 860.278 544.043 860.896 544.008C861.515 543.973 862.156 543.944 862.821 543.921C863.486 543.897 864.14 543.88 864.781 543.868C865.423 543.857 866.012 543.851 866.549 543.851C868.696 543.851 870.556 544.16 872.131 544.778C873.706 545.397 875.013 546.254 876.051 547.351C877.09 548.447 877.866 549.754 878.379 551.271C878.892 552.787 879.149 554.444 879.149 556.241C879.149 557.874 878.91 559.455 878.431 560.983C877.953 562.512 877.189 563.871 876.139 565.061C875.089 566.251 873.741 567.207 872.096 567.931C870.451 568.654 868.462 569.016 866.129 569.016C865.732 569.016 865.201 569.004 864.536 568.981C863.871 568.957 863.189 568.934 862.489 568.911C861.789 568.887 861.141 568.858 860.546 568.823C859.951 568.788 859.526 568.747 859.269 568.701L859.269 544.166ZM866.654 546.931C866.327 546.931 865.977 546.931 865.604 546.931C865.231 546.931 864.857 546.942 864.484 546.966C864.111 546.989 863.772 547.012 863.469 547.036C863.166 547.059 862.932 547.082 862.769 547.106L862.769 565.796C862.886 565.819 863.113 565.837 863.451 565.848C863.79 565.86 864.146 565.872 864.519 565.883C864.892 565.895 865.242 565.907 865.569 565.918C865.896 565.93 866.129 565.936 866.269 565.936C868.019 565.936 869.483 565.662 870.661 565.113C871.84 564.565 872.785 563.836 873.496 562.926C874.208 562.016 874.71 560.983 875.001 559.828C875.293 558.673 875.439 557.477 875.439 556.241C875.439 555.191 875.299 554.117 875.019 553.021C874.739 551.924 874.261 550.927 873.584 550.028C872.907 549.13 872.009 548.389 870.889 547.806C869.769 547.222 868.357 546.931 866.654 546.931Z" fill="#000000" fill-rule="nonzero" opacity="1" stroke="none" vectornator:layerName="Curva"/>
<path d="M884.294 544.166L899.099 544.166L899.099 547.176L887.794 547.176L887.794 554.631L898.119 554.631L898.119 557.641L887.794 557.641L887.794 565.656L899.274 565.656L899.274 568.666L884.294 568.666L884.294 544.166Z" fill="#000000" fill-rule="nonzero" opacity="1" stroke="none" vectornator:layerName="Curva"/>
<path d="M926.994 562.226C926.994 561.269 926.679 560.511 926.049 559.951C925.419 559.391 924.626 558.907 923.669 558.498C922.712 558.09 921.686 557.705 920.589 557.343C919.492 556.982 918.466 556.521 917.509 555.961C916.552 555.401 915.759 554.677 915.129 553.791C914.499 552.904 914.184 551.749 914.184 550.326C914.184 548.342 914.913 546.744 916.371 545.531C917.83 544.317 919.912 543.711 922.619 543.711C924.182 543.711 925.617 543.827 926.924 544.061C928.231 544.294 929.257 544.597 930.004 544.971L928.919 547.911C928.336 547.607 927.461 547.333 926.294 547.088C925.127 546.843 923.844 546.721 922.444 546.721C920.857 546.721 919.667 547.059 918.874 547.736C918.081 548.412 917.684 549.194 917.684 550.081C917.684 550.991 917.999 551.726 918.629 552.286C919.259 552.846 920.052 553.342 921.009 553.773C921.966 554.205 922.992 554.619 924.089 555.016C925.186 555.412 926.212 555.902 927.169 556.486C928.126 557.069 928.919 557.787 929.549 558.638C930.179 559.49 930.494 560.581 930.494 561.911C930.494 563.007 930.284 563.999 929.864 564.886C929.444 565.772 928.837 566.531 928.044 567.161C927.251 567.791 926.294 568.275 925.174 568.613C924.054 568.952 922.782 569.121 921.359 569.121C919.446 569.121 917.83 568.975 916.511 568.683C915.193 568.392 914.196 568.082 913.519 567.756L914.674 564.711C915.257 565.014 916.138 565.323 917.316 565.638C918.495 565.953 919.796 566.111 921.219 566.111C922.036 566.111 922.794 566.035 923.494 565.883C924.194 565.732 924.806 565.498 925.331 565.183C925.856 564.868 926.265 564.466 926.556 563.976C926.848 563.486 926.994 562.902 926.994 562.226Z" fill="#000000" fill-rule="nonzero" opacity="1" stroke="none" vectornator:layerName="Curva"/>
<path d="M948.169 562.261L938.474 562.261L935.884 568.666L932.454 568.666L942.534 543.816L944.354 543.816L954.469 568.666L950.829 568.666L948.169 562.261ZM939.524 559.321L947.154 559.321L944.319 552.356L943.374 548.611L943.304 548.611L942.359 552.426L939.524 559.321Z" fill="#000000" fill-rule="nonzero" opacity="1" stroke="none" vectornator:layerName="Curva"/>
<path d="M973.194 544.166L976.484 544.166L976.484 560.161C976.484 561.677 976.268 562.984 975.836 564.081C975.405 565.177 974.792 566.093 973.999 566.828C973.206 567.563 972.266 568.106 971.181 568.456C970.096 568.806 968.889 568.981 967.559 568.981C964.409 568.981 962.006 568.298 960.349 566.933C958.692 565.568 957.864 563.544 957.864 560.861L957.864 544.166L961.364 544.166L961.364 559.531C961.364 561.911 961.883 563.567 962.921 564.501C963.96 565.434 965.494 565.901 967.524 565.901C969.484 565.901 970.919 565.387 971.829 564.361C972.739 563.334 973.194 561.689 973.194 559.426L973.194 544.166ZM969.589 538.216L974.209 538.216L974.209 539.021L967.979 542.346L965.144 542.346L969.589 538.216Z" fill="#000000" fill-rule="nonzero" opacity="1" stroke="none" vectornator:layerName="Curva"/>
<path d="M982.714 544.166C983.181 544.096 983.723 544.043 984.341 544.008C984.96 543.973 985.601 543.944 986.266 543.921C986.931 543.897 987.585 543.88 988.226 543.868C988.868 543.857 989.457 543.851 989.994 543.851C992.141 543.851 994.001 544.16 995.576 544.778C997.151 545.397 998.458 546.254 999.496 547.351C1000.53 548.447 1001.31 549.754 1001.82 551.271C1002.34 552.787 1002.59 554.444 1002.59 556.241C1002.59 557.874 1002.35 559.455 1001.88 560.983C1001.4 562.512 1000.63 563.871 999.584 565.061C998.534 566.251 997.186 567.207 995.541 567.931C993.896 568.654 991.907 569.016 989.574 569.016C989.177 569.016 988.646 569.004 987.981 568.981C987.316 568.957 986.634 568.934 985.934 568.911C985.234 568.887 984.586 568.858 983.991 568.823C983.396 568.788 982.971 568.747 982.714 568.701L982.714 544.166ZM990.099 546.931C989.772 546.931 989.422 546.931 989.049 546.931C988.676 546.931 988.302 546.942 987.929 546.966C987.556 546.989 987.217 547.012 986.914 547.036C986.611 547.059 986.377 547.082 986.214 547.106L986.214 565.796C986.331 565.819 986.558 565.837 986.896 565.848C987.235 565.86 987.591 565.872 987.964 565.883C988.337 565.895 988.687 565.907 989.014 565.918C989.341 565.93 989.574 565.936 989.714 565.936C991.464 565.936 992.928 565.662 994.106 565.113C995.285 564.565 996.23 563.836 996.941 562.926C997.653 562.016 998.155 560.983 998.446 559.828C998.738 558.673 998.884 557.477 998.884 556.241C998.884 555.191 998.744 554.117 998.464 553.021C998.184 551.924 997.706 550.927 997.029 550.028C996.352 549.13 995.454 548.389 994.334 547.806C993.214 547.222 991.802 546.931 990.099 546.931Z" fill="#000000" fill-rule="nonzero" opacity="1" stroke="none" vectornator:layerName="Curva"/>
<path d="M1007.74 544.166L1022.54 544.166L1022.54 547.176L1011.24 547.176L1011.24 554.631L1021.56 554.631L1021.56 557.641L1011.24 557.641L1011.24 565.656L1022.72 565.656L1022.72 568.666L1007.74 568.666L1007.74 544.166Z" fill="#000000" fill-rule="nonzero" opacity="1" stroke="none" vectornator:layerName="Curva"/>
<path d="M1038.4 544.166C1038.87 544.096 1039.41 544.043 1040.03 544.008C1040.64 543.973 1041.29 543.944 1041.95 543.921C1042.62 543.897 1043.27 543.88 1043.91 543.868C1044.55 543.857 1045.14 543.851 1045.68 543.851C1047.83 543.851 1049.69 544.16 1051.26 544.778C1052.84 545.397 1054.14 546.254 1055.18 547.351C1056.22 548.447 1057 549.754 1057.51 551.271C1058.02 552.787 1058.28 554.444 1058.28 556.241C1058.28 557.874 1058.04 559.455 1057.56 560.983C1057.08 562.512 1056.32 563.871 1055.27 565.061C1054.22 566.251 1052.87 567.207 1051.23 567.931C1049.58 568.654 1047.59 569.016 1045.26 569.016C1044.86 569.016 1044.33 569.004 1043.67 568.981C1043 568.957 1042.32 568.934 1041.62 568.911C1040.92 568.887 1040.27 568.858 1039.68 568.823C1039.08 568.788 1038.66 568.747 1038.4 568.701L1038.4 544.166ZM1045.78 546.931C1045.46 546.931 1045.11 546.931 1044.73 546.931C1044.36 546.931 1043.99 546.942 1043.61 546.966C1043.24 546.989 1042.9 547.012 1042.6 547.036C1042.3 547.059 1042.06 547.082 1041.9 547.106L1041.9 565.796C1042.02 565.819 1042.24 565.837 1042.58 565.848C1042.92 565.86 1043.28 565.872 1043.65 565.883C1044.02 565.895 1044.37 565.907 1044.7 565.918C1045.03 565.93 1045.26 565.936 1045.4 565.936C1047.15 565.936 1048.61 565.662 1049.79 565.113C1050.97 564.565 1051.91 563.836 1052.63 562.926C1053.34 562.016 1053.84 560.983 1054.13 559.828C1054.42 558.673 1054.57 557.477 1054.57 556.241C1054.57 555.191 1054.43 554.117 1054.15 553.021C1053.87 551.924 1053.39 550.927 1052.71 550.028C1052.04 549.13 1051.14 548.389 1050.02 547.806C1048.9 547.222 1047.49 546.931 1045.78 546.931Z" fill="#000000" fill-rule="nonzero" opacity="1" stroke="none" vectornator:layerName="Curva"/>
<path d="M1062.34 556.416C1062.34 554.409 1062.59 552.618 1063.09 551.043C1063.59 549.468 1064.32 548.138 1065.26 547.053C1066.21 545.968 1067.36 545.14 1068.73 544.568C1070.09 543.997 1071.64 543.711 1073.36 543.711C1075.21 543.711 1076.82 544.02 1078.21 544.638C1079.6 545.257 1080.75 546.12 1081.68 547.228C1082.6 548.337 1083.29 549.672 1083.74 551.236C1084.2 552.799 1084.42 554.526 1084.42 556.416C1084.42 558.422 1084.17 560.213 1083.67 561.788C1083.17 563.363 1082.44 564.693 1081.48 565.778C1080.53 566.863 1079.37 567.692 1078 568.263C1076.64 568.835 1075.09 569.121 1073.36 569.121C1071.5 569.121 1069.88 568.812 1068.5 568.193C1067.12 567.575 1065.98 566.712 1065.07 565.603C1064.16 564.495 1063.48 563.159 1063.02 561.596C1062.57 560.032 1062.34 558.306 1062.34 556.416ZM1066.05 556.416C1066.05 557.746 1066.19 558.994 1066.49 560.161C1066.78 561.327 1067.22 562.354 1067.82 563.241C1068.41 564.127 1069.17 564.827 1070.09 565.341C1071.01 565.854 1072.1 566.111 1073.36 566.111C1075.63 566.111 1077.42 565.329 1078.74 563.766C1080.05 562.202 1080.71 559.752 1080.71 556.416C1080.71 555.109 1080.57 553.872 1080.28 552.706C1079.98 551.539 1079.54 550.512 1078.95 549.626C1078.35 548.739 1077.59 548.033 1076.67 547.508C1075.75 546.983 1074.65 546.721 1073.36 546.721C1071.12 546.721 1069.34 547.514 1068.03 549.101C1066.71 550.687 1066.05 553.126 1066.05 556.416Z" fill="#000000" fill-rule="nonzero" opacity="1" stroke="none" vectornator:layerName="Curva"/>
<path d="M1101.61 562.226C1101.61 561.269 1101.29 560.511 1100.66 559.951C1100.03 559.391 1099.24 558.907 1098.28 558.498C1097.33 558.09 1096.3 557.705 1095.2 557.343C1094.11 556.982 1093.08 556.521 1092.12 555.961C1091.17 555.401 1090.37 554.677 1089.74 553.791C1089.11 552.904 1088.8 551.749 1088.8 550.326C1088.8 548.342 1089.53 546.744 1090.99 545.531C1092.44 544.317 1094.53 543.711 1097.23 543.711C1098.8 543.711 1100.23 543.827 1101.54 544.061C1102.85 544.294 1103.87 544.597 1104.62 544.971L1103.53 547.911C1102.95 547.607 1102.08 547.333 1100.91 547.088C1099.74 546.843 1098.46 546.721 1097.06 546.721C1095.47 546.721 1094.28 547.059 1093.49 547.736C1092.7 548.412 1092.3 549.194 1092.3 550.081C1092.3 550.991 1092.61 551.726 1093.24 552.286C1093.87 552.846 1094.67 553.342 1095.62 553.773C1096.58 554.205 1097.61 554.619 1098.7 555.016C1099.8 555.412 1100.83 555.902 1101.78 556.486C1102.74 557.069 1103.53 557.787 1104.16 558.638C1104.79 559.49 1105.11 560.581 1105.11 561.911C1105.11 563.007 1104.9 563.999 1104.48 564.886C1104.06 565.772 1103.45 566.531 1102.66 567.161C1101.87 567.791 1100.91 568.275 1099.79 568.613C1098.67 568.952 1097.4 569.121 1095.97 569.121C1094.06 569.121 1092.44 568.975 1091.13 568.683C1089.81 568.392 1088.81 568.082 1088.13 567.756L1089.29 564.711C1089.87 565.014 1090.75 565.323 1091.93 565.638C1093.11 565.953 1094.41 566.111 1095.83 566.111C1096.65 566.111 1097.41 566.035 1098.11 565.883C1098.81 565.732 1099.42 565.498 1099.95 565.183C1100.47 564.868 1100.88 564.466 1101.17 563.976C1101.46 563.486 1101.61 562.902 1101.61 562.226Z" fill="#000000" fill-rule="nonzero" opacity="1" stroke="none" vectornator:layerName="Curva"/>
<path d="M1132.13 562.226C1132.13 561.269 1131.81 560.511 1131.18 559.951C1130.55 559.391 1129.76 558.907 1128.8 558.498C1127.85 558.09 1126.82 557.705 1125.72 557.343C1124.63 556.982 1123.6 556.521 1122.64 555.961C1121.69 555.401 1120.89 554.677 1120.26 553.791C1119.63 552.904 1119.32 551.749 1119.32 550.326C1119.32 548.342 1120.05 546.744 1121.51 545.531C1122.96 544.317 1125.05 543.711 1127.75 543.711C1129.32 543.711 1130.75 543.827 1132.06 544.061C1133.37 544.294 1134.39 544.597 1135.14 544.971L1134.05 547.911C1133.47 547.607 1132.6 547.333 1131.43 547.088C1130.26 546.843 1128.98 546.721 1127.58 546.721C1125.99 546.721 1124.8 547.059 1124.01 547.736C1123.22 548.412 1122.82 549.194 1122.82 550.081C1122.82 550.991 1123.13 551.726 1123.76 552.286C1124.39 552.846 1125.19 553.342 1126.14 553.773C1127.1 554.205 1128.13 554.619 1129.22 555.016C1130.32 555.412 1131.35 555.902 1132.3 556.486C1133.26 557.069 1134.05 557.787 1134.68 558.638C1135.31 559.49 1135.63 560.581 1135.63 561.911C1135.63 563.007 1135.42 563.999 1135 564.886C1134.58 565.772 1133.97 566.531 1133.18 567.161C1132.39 567.791 1131.43 568.275 1130.31 568.613C1129.19 568.952 1127.92 569.121 1126.49 569.121C1124.58 569.121 1122.96 568.975 1121.65 568.683C1120.33 568.392 1119.33 568.082 1118.65 567.756L1119.81 564.711C1120.39 565.014 1121.27 565.323 1122.45 565.638C1123.63 565.953 1124.93 566.111 1126.35 566.111C1127.17 566.111 1127.93 566.035 1128.63 565.883C1129.33 565.732 1129.94 565.498 1130.47 565.183C1130.99 564.868 1131.4 564.466 1131.69 563.976C1131.98 563.486 1132.13 562.902 1132.13 562.226Z" fill="#000000" fill-rule="nonzero" opacity="1" stroke="none" vectornator:layerName="Curva"/>
<path d="M1140.42 544.166L1155.23 544.166L1155.23 547.176L1143.92 547.176L1143.92 554.631L1154.25 554.631L1154.25 557.641L1143.92 557.641L1143.92 565.656L1155.4 565.656L1155.4 568.666L1140.42 568.666L1140.42 544.166Z" fill="#000000" fill-rule="nonzero" opacity="1" stroke="none" vectornator:layerName="Curva"/>
<path d="M1160.9 544.411C1161.39 544.317 1161.93 544.236 1162.53 544.166C1163.12 544.096 1163.72 544.037 1164.33 543.991C1164.94 543.944 1165.54 543.909 1166.15 543.886C1166.76 543.862 1167.33 543.851 1167.86 543.851C1169.03 543.851 1170.16 543.967 1171.24 544.201C1172.33 544.434 1173.28 544.819 1174.11 545.356C1174.94 545.892 1175.6 546.592 1176.11 547.456C1176.61 548.319 1176.86 549.381 1176.86 550.641C1176.86 551.621 1176.71 552.507 1176.4 553.301C1176.1 554.094 1175.68 554.794 1175.14 555.401C1174.61 556.007 1173.97 556.515 1173.24 556.923C1172.5 557.332 1171.7 557.641 1170.84 557.851L1172.66 559.076L1179.24 568.666L1175.21 568.666L1167.93 558.341L1164.4 557.851L1164.4 568.666L1160.9 568.666L1160.9 544.411ZM1167.97 546.861C1167.64 546.861 1167.31 546.861 1166.97 546.861C1166.63 546.861 1166.3 546.872 1165.97 546.896C1165.65 546.919 1165.34 546.942 1165.06 546.966C1164.78 546.989 1164.56 547.024 1164.4 547.071L1164.4 555.541L1167.27 555.541C1168.11 555.541 1168.88 555.453 1169.6 555.278C1170.31 555.103 1170.93 554.835 1171.45 554.473C1171.98 554.112 1172.39 553.639 1172.69 553.056C1173 552.472 1173.15 551.761 1173.15 550.921C1173.15 549.661 1172.71 548.669 1171.82 547.946C1170.93 547.222 1169.65 546.861 1167.97 546.861Z" fill="#000000" fill-rule="nonzero" opacity="1" stroke="none" vectornator:layerName="Curva"/>
<path d="M1189.32 560.476L1190.23 564.291L1190.3 564.291L1191.24 560.406L1197.54 544.166L1201.04 544.166L1190.89 569.016L1189.14 569.016L1178.85 544.166L1182.7 544.166L1189.32 560.476Z" fill="#000000" fill-rule="nonzero" opacity="1" stroke="none" vectornator:layerName="Curva"/>
<path d="M1206.15 546.476L1203.35 546.476L1203.35 544.166L1212.45 544.166L1212.45 546.476L1209.65 546.476L1209.65 566.356L1212.45 566.356L1212.45 568.666L1203.35 568.666L1203.35 566.356L1206.15 566.356L1206.15 546.476Z" fill="#000000" fill-rule="nonzero" opacity="1" stroke="none" vectornator:layerName="Curva"/>
<path d="M1217.98 544.166C1218.45 544.096 1218.99 544.043 1219.61 544.008C1220.23 543.973 1220.87 543.944 1221.54 543.921C1222.2 543.897 1222.85 543.88 1223.5 543.868C1224.14 543.857 1224.73 543.851 1225.26 543.851C1227.41 543.851 1229.27 544.16 1230.85 544.778C1232.42 545.397 1233.73 546.254 1234.77 547.351C1235.8 548.447 1236.58 549.754 1237.09 551.271C1237.61 552.787 1237.86 554.444 1237.86 556.241C1237.86 557.874 1237.62 559.455 1237.15 560.983C1236.67 562.512 1235.9 563.871 1234.85 565.061C1233.8 566.251 1232.46 567.207 1230.81 567.931C1229.17 568.654 1227.18 569.016 1224.84 569.016C1224.45 569.016 1223.92 569.004 1223.25 568.981C1222.59 568.957 1221.9 568.934 1221.2 568.911C1220.5 568.887 1219.86 568.858 1219.26 568.823C1218.67 568.788 1218.24 568.747 1217.98 568.701L1217.98 544.166ZM1225.37 546.931C1225.04 546.931 1224.69 546.931 1224.32 546.931C1223.95 546.931 1223.57 546.942 1223.2 546.966C1222.83 546.989 1222.49 547.012 1222.18 547.036C1221.88 547.059 1221.65 547.082 1221.48 547.106L1221.48 565.796C1221.6 565.819 1221.83 565.837 1222.17 565.848C1222.5 565.86 1222.86 565.872 1223.23 565.883C1223.61 565.895 1223.96 565.907 1224.28 565.918C1224.61 565.93 1224.84 565.936 1224.98 565.936C1226.73 565.936 1228.2 565.662 1229.38 565.113C1230.55 564.565 1231.5 563.836 1232.21 562.926C1232.92 562.016 1233.42 560.983 1233.72 559.828C1234.01 558.673 1234.15 557.477 1234.15 556.241C1234.15 555.191 1234.01 554.117 1233.73 553.021C1233.45 551.924 1232.98 550.927 1232.3 550.028C1231.62 549.13 1230.72 548.389 1229.6 547.806C1228.48 547.222 1227.07 546.931 1225.37 546.931Z" fill="#000000" fill-rule="nonzero" opacity="1" stroke="none" vectornator:layerName="Curva"/>
<path d="M1241.92 556.416C1241.92 554.409 1242.17 552.618 1242.68 551.043C1243.18 549.468 1243.9 548.138 1244.85 547.053C1245.79 545.968 1246.95 545.14 1248.31 544.568C1249.68 543.997 1251.22 543.711 1252.95 543.711C1254.79 543.711 1256.41 544.02 1257.8 544.638C1259.18 545.257 1260.34 546.12 1261.26 547.228C1262.18 548.337 1262.87 549.672 1263.33 551.236C1263.78 552.799 1264.01 554.526 1264.01 556.416C1264.01 558.422 1263.76 560.213 1263.26 561.788C1262.75 563.363 1262.03 564.693 1261.07 565.778C1260.11 566.863 1258.95 567.692 1257.59 568.263C1256.22 568.835 1254.68 569.121 1252.95 569.121C1251.08 569.121 1249.46 568.812 1248.08 568.193C1246.71 567.575 1245.56 566.712 1244.65 565.603C1243.74 564.495 1243.06 563.159 1242.61 561.596C1242.15 560.032 1241.92 558.306 1241.92 556.416ZM1245.63 556.416C1245.63 557.746 1245.78 558.994 1246.07 560.161C1246.36 561.327 1246.81 562.354 1247.4 563.241C1248 564.127 1248.75 564.827 1249.68 565.341C1250.6 565.854 1251.69 566.111 1252.95 566.111C1255.21 566.111 1257 565.329 1258.32 563.766C1259.64 562.202 1260.3 559.752 1260.3 556.416C1260.3 555.109 1260.15 553.872 1259.86 552.706C1259.57 551.539 1259.13 550.512 1258.53 549.626C1257.94 548.739 1257.18 548.033 1256.26 547.508C1255.33 546.983 1254.23 546.721 1252.95 546.721C1250.71 546.721 1248.93 547.514 1247.61 549.101C1246.29 550.687 1245.63 553.126 1245.63 556.416Z" fill="#000000" fill-rule="nonzero" opacity="1" stroke="none" vectornator:layerName="Curva"/>
<path d="M1269.15 544.411C1269.64 544.317 1270.19 544.236 1270.78 544.166C1271.38 544.096 1271.98 544.037 1272.58 543.991C1273.19 543.944 1273.8 543.909 1274.4 543.886C1275.01 543.862 1275.58 543.851 1276.12 543.851C1277.29 543.851 1278.41 543.967 1279.5 544.201C1280.58 544.434 1281.54 544.819 1282.37 545.356C1283.19 545.892 1283.86 546.592 1284.36 547.456C1284.86 548.319 1285.11 549.381 1285.11 550.641C1285.11 551.621 1284.96 552.507 1284.66 553.301C1284.36 554.094 1283.94 554.794 1283.4 555.401C1282.86 556.007 1282.23 556.515 1281.49 556.923C1280.76 557.332 1279.96 557.641 1279.09 557.851L1280.91 559.076L1287.49 568.666L1283.47 568.666L1276.19 558.341L1272.65 557.851L1272.65 568.666L1269.15 568.666L1269.15 544.411ZM1276.22 546.861C1275.9 546.861 1275.56 546.861 1275.23 546.861C1274.89 546.861 1274.56 546.872 1274.23 546.896C1273.9 546.919 1273.6 546.942 1273.32 546.966C1273.04 546.989 1272.82 547.024 1272.65 547.071L1272.65 555.541L1275.52 555.541C1276.36 555.541 1277.14 555.453 1277.85 555.278C1278.56 555.103 1279.18 554.835 1279.71 554.473C1280.23 554.112 1280.65 553.639 1280.95 553.056C1281.25 552.472 1281.4 551.761 1281.4 550.921C1281.4 549.661 1280.96 548.669 1280.07 547.946C1279.19 547.222 1277.9 546.861 1276.22 546.861Z" fill="#000000" fill-rule="nonzero" opacity="1" stroke="none" vectornator:layerName="Curva"/>
<path d="M1292.01 544.166L1306.81 544.166L1306.81 547.176L1295.51 547.176L1295.51 554.631L1305.83 554.631L1305.83 557.641L1295.51 557.641L1295.51 565.656L1306.99 565.656L1306.99 568.666L1292.01 568.666L1292.01 544.166Z" fill="#000000" fill-rule="nonzero" opacity="1" stroke="none" vectornator:layerName="Curva"/>
<path d="M1324.52 562.226C1324.52 561.269 1324.21 560.511 1323.58 559.951C1322.95 559.391 1322.16 558.907 1321.2 558.498C1320.24 558.09 1319.22 557.705 1318.12 557.343C1317.02 556.982 1316 556.521 1315.04 555.961C1314.08 555.401 1313.29 554.677 1312.66 553.791C1312.03 552.904 1311.71 551.749 1311.71 550.326C1311.71 548.342 1312.44 546.744 1313.9 545.531C1315.36 544.317 1317.44 543.711 1320.15 543.711C1321.71 543.711 1323.15 543.827 1324.45 544.061C1325.76 544.294 1326.79 544.597 1327.53 544.971L1326.45 547.911C1325.87 547.607 1324.99 547.333 1323.82 547.088C1322.66 546.843 1321.37 546.721 1319.97 546.721C1318.39 546.721 1317.2 547.059 1316.4 547.736C1315.61 548.412 1315.21 549.194 1315.21 550.081C1315.21 550.991 1315.53 551.726 1316.16 552.286C1316.79 552.846 1317.58 553.342 1318.54 553.773C1319.5 554.205 1320.52 554.619 1321.62 555.016C1322.72 555.412 1323.74 555.902 1324.7 556.486C1325.66 557.069 1326.45 557.787 1327.08 558.638C1327.71 559.49 1328.02 560.581 1328.02 561.911C1328.02 563.007 1327.81 563.999 1327.39 564.886C1326.97 565.772 1326.37 566.531 1325.57 567.161C1324.78 567.791 1323.82 568.275 1322.7 568.613C1321.58 568.952 1320.31 569.121 1318.89 569.121C1316.98 569.121 1315.36 568.975 1314.04 568.683C1312.72 568.392 1311.73 568.082 1311.05 567.756L1312.2 564.711C1312.79 565.014 1313.67 565.323 1314.85 565.638C1316.02 565.953 1317.33 566.111 1318.75 566.111C1319.57 566.111 1320.32 566.035 1321.02 565.883C1321.72 565.732 1322.34 565.498 1322.86 565.183C1323.39 564.868 1323.79 564.466 1324.09 563.976C1324.38 563.486 1324.52 562.902 1324.52 562.226Z" fill="#000000" fill-rule="nonzero" opacity="1" stroke="none" vectornator:layerName="Curva"/>
<path d="M1343 544.166C1343.47 544.096 1344.01 544.043 1344.63 544.008C1345.25 543.973 1345.89 543.944 1346.56 543.921C1347.22 543.897 1347.87 543.88 1348.52 543.868C1349.16 543.857 1349.75 543.851 1350.28 543.851C1352.43 543.851 1354.29 544.16 1355.87 544.778C1357.44 545.397 1358.75 546.254 1359.79 547.351C1360.82 548.447 1361.6 549.754 1362.11 551.271C1362.63 552.787 1362.88 554.444 1362.88 556.241C1362.88 557.874 1362.64 559.455 1362.17 560.983C1361.69 562.512 1360.92 563.871 1359.87 565.061C1358.82 566.251 1357.48 567.207 1355.83 567.931C1354.19 568.654 1352.2 569.016 1349.86 569.016C1349.47 569.016 1348.94 569.004 1348.27 568.981C1347.61 568.957 1346.92 568.934 1346.22 568.911C1345.52 568.887 1344.88 568.858 1344.28 568.823C1343.69 568.788 1343.26 568.747 1343 568.701L1343 544.166ZM1350.39 546.931C1350.06 546.931 1349.71 546.931 1349.34 546.931C1348.97 546.931 1348.59 546.942 1348.22 546.966C1347.85 546.989 1347.51 547.012 1347.2 547.036C1346.9 547.059 1346.67 547.082 1346.5 547.106L1346.5 565.796C1346.62 565.819 1346.85 565.837 1347.19 565.848C1347.52 565.86 1347.88 565.872 1348.25 565.883C1348.63 565.895 1348.98 565.907 1349.3 565.918C1349.63 565.93 1349.86 565.936 1350 565.936C1351.75 565.936 1353.22 565.662 1354.4 565.113C1355.57 564.565 1356.52 563.836 1357.23 562.926C1357.94 562.016 1358.44 560.983 1358.74 559.828C1359.03 558.673 1359.17 557.477 1359.17 556.241C1359.17 555.191 1359.03 554.117 1358.75 553.021C1358.47 551.924 1358 550.927 1357.32 550.028C1356.64 549.13 1355.74 548.389 1354.62 547.806C1353.5 547.222 1352.09 546.931 1350.39 546.931Z" fill="#000000" fill-rule="nonzero" opacity="1" stroke="none" vectornator:layerName="Curva"/>
<path d="M1366.94 556.416C1366.94 554.409 1367.19 552.618 1367.7 551.043C1368.2 549.468 1368.92 548.138 1369.87 547.053C1370.81 545.968 1371.97 545.14 1373.33 544.568C1374.7 543.997 1376.24 543.711 1377.97 543.711C1379.81 543.711 1381.43 544.02 1382.82 544.638C1384.2 545.257 1385.36 546.12 1386.28 547.228C1387.2 548.337 1387.89 549.672 1388.35 551.236C1388.8 552.799 1389.03 554.526 1389.03 556.416C1389.03 558.422 1388.78 560.213 1388.28 561.788C1387.77 563.363 1387.05 564.693 1386.09 565.778C1385.13 566.863 1383.97 567.692 1382.61 568.263C1381.24 568.835 1379.7 569.121 1377.97 569.121C1376.1 569.121 1374.48 568.812 1373.1 568.193C1371.73 567.575 1370.58 566.712 1369.67 565.603C1368.76 564.495 1368.08 563.159 1367.63 561.596C1367.17 560.032 1366.94 558.306 1366.94 556.416ZM1370.65 556.416C1370.65 557.746 1370.8 558.994 1371.09 560.161C1371.38 561.327 1371.83 562.354 1372.42 563.241C1373.02 564.127 1373.77 564.827 1374.7 565.341C1375.62 565.854 1376.71 566.111 1377.97 566.111C1380.23 566.111 1382.02 565.329 1383.34 563.766C1384.66 562.202 1385.32 559.752 1385.32 556.416C1385.32 555.109 1385.17 553.872 1384.88 552.706C1384.59 551.539 1384.15 550.512 1383.55 549.626C1382.96 548.739 1382.2 548.033 1381.28 547.508C1380.35 546.983 1379.25 546.721 1377.97 546.721C1375.73 546.721 1373.95 547.514 1372.63 549.101C1371.31 550.687 1370.65 553.126 1370.65 556.416Z" fill="#000000" fill-rule="nonzero" opacity="1" stroke="none" vectornator:layerName="Curva"/>
<path d="M1404.36 544.411C1405.34 544.201 1406.41 544.055 1407.56 543.973C1408.72 543.892 1409.85 543.851 1410.97 543.851C1412.16 543.851 1413.37 543.956 1414.6 544.166C1415.82 544.376 1416.94 544.761 1417.94 545.321C1418.94 545.881 1419.76 546.657 1420.41 547.648C1421.05 548.64 1421.37 549.917 1421.37 551.481C1421.37 552.951 1421.08 554.205 1420.49 555.243C1419.91 556.282 1419.13 557.127 1418.17 557.781C1417.2 558.434 1416.09 558.912 1414.84 559.216C1413.59 559.519 1412.3 559.671 1410.97 559.671C1410.83 559.671 1410.62 559.665 1410.33 559.653C1410.03 559.642 1409.73 559.63 1409.42 559.618C1409.1 559.607 1408.8 559.589 1408.51 559.566C1408.21 559.542 1408 559.519 1407.86 559.496L1407.86 568.666L1404.36 568.666L1404.36 544.411ZM1411.08 546.861C1410.45 546.861 1409.84 546.872 1409.24 546.896C1408.65 546.919 1408.19 546.977 1407.86 547.071L1407.86 556.486C1407.98 556.532 1408.17 556.562 1408.44 556.573C1408.7 556.585 1408.98 556.602 1409.28 556.626C1409.57 556.649 1409.85 556.661 1410.12 556.661C1410.38 556.661 1410.59 556.661 1410.73 556.661C1411.57 556.661 1412.4 556.597 1413.21 556.468C1414.03 556.34 1414.77 556.089 1415.44 555.716C1416.1 555.342 1416.64 554.817 1417.05 554.141C1417.45 553.464 1417.66 552.589 1417.66 551.516C1417.66 550.582 1417.46 549.812 1417.06 549.206C1416.67 548.599 1416.15 548.121 1415.52 547.771C1414.89 547.421 1414.19 547.182 1413.41 547.053C1412.62 546.925 1411.85 546.861 1411.08 546.861Z" fill="#000000" fill-rule="nonzero" opacity="1" stroke="none" vectornator:layerName="Curva"/>
<path d="M1424.17 556.416C1424.17 554.409 1424.42 552.618 1424.92 551.043C1425.42 549.468 1426.15 548.138 1427.09 547.053C1428.04 545.968 1429.19 545.14 1430.56 544.568C1431.92 543.997 1433.47 543.711 1435.19 543.711C1437.04 543.711 1438.65 544.02 1440.04 544.638C1441.43 545.257 1442.58 546.12 1443.51 547.228C1444.43 548.337 1445.12 549.672 1445.57 551.236C1446.03 552.799 1446.25 554.526 1446.25 556.416C1446.25 558.422 1446 560.213 1445.5 561.788C1445 563.363 1444.27 564.693 1443.31 565.778C1442.36 566.863 1441.2 567.692 1439.83 568.263C1438.47 568.835 1436.92 569.121 1435.19 569.121C1433.33 569.121 1431.71 568.812 1430.33 568.193C1428.95 567.575 1427.81 566.712 1426.9 565.603C1425.99 564.495 1425.31 563.159 1424.85 561.596C1424.4 560.032 1424.17 558.306 1424.17 556.416ZM1427.88 556.416C1427.88 557.746 1428.02 558.994 1428.32 560.161C1428.61 561.327 1429.05 562.354 1429.65 563.241C1430.24 564.127 1431 564.827 1431.92 565.341C1432.84 565.854 1433.93 566.111 1435.19 566.111C1437.46 566.111 1439.25 565.329 1440.57 563.766C1441.88 562.202 1442.54 559.752 1442.54 556.416C1442.54 555.109 1442.4 553.872 1442.11 552.706C1441.81 551.539 1441.37 550.512 1440.78 549.626C1440.18 548.739 1439.42 548.033 1438.5 547.508C1437.58 546.983 1436.48 546.721 1435.19 546.721C1432.95 546.721 1431.17 547.514 1429.86 549.101C1428.54 550.687 1427.88 553.126 1427.88 556.416Z" fill="#000000" fill-rule="nonzero" opacity="1" stroke="none" vectornator:layerName="Curva"/>
<path d="M1451.4 544.166C1451.87 544.096 1452.41 544.043 1453.03 544.008C1453.64 543.973 1454.29 543.944 1454.95 543.921C1455.62 543.897 1456.27 543.88 1456.91 543.868C1457.55 543.857 1458.14 543.851 1458.68 543.851C1460.83 543.851 1462.69 544.16 1464.26 544.778C1465.84 545.397 1467.14 546.254 1468.18 547.351C1469.22 548.447 1470 549.754 1470.51 551.271C1471.02 552.787 1471.28 554.444 1471.28 556.241C1471.28 557.874 1471.04 559.455 1470.56 560.983C1470.08 562.512 1469.32 563.871 1468.27 565.061C1467.22 566.251 1465.87 567.207 1464.23 567.931C1462.58 568.654 1460.59 569.016 1458.26 569.016C1457.86 569.016 1457.33 569.004 1456.67 568.981C1456 568.957 1455.32 568.934 1454.62 568.911C1453.92 568.887 1453.27 568.858 1452.68 568.823C1452.08 568.788 1451.66 568.747 1451.4 568.701L1451.4 544.166ZM1458.78 546.931C1458.46 546.931 1458.11 546.931 1457.73 546.931C1457.36 546.931 1456.99 546.942 1456.61 546.966C1456.24 546.989 1455.9 547.012 1455.6 547.036C1455.3 547.059 1455.06 547.082 1454.9 547.106L1454.9 565.796C1455.02 565.819 1455.24 565.837 1455.58 565.848C1455.92 565.86 1456.28 565.872 1456.65 565.883C1457.02 565.895 1457.37 565.907 1457.7 565.918C1458.03 565.93 1458.26 565.936 1458.4 565.936C1460.15 565.936 1461.61 565.662 1462.79 565.113C1463.97 564.565 1464.91 563.836 1465.63 562.926C1466.34 562.016 1466.84 560.983 1467.13 559.828C1467.42 558.673 1467.57 557.477 1467.57 556.241C1467.57 555.191 1467.43 554.117 1467.15 553.021C1466.87 551.924 1466.39 550.927 1465.71 550.028C1465.04 549.13 1464.14 548.389 1463.02 547.806C1461.9 547.222 1460.49 546.931 1458.78 546.931Z" fill="#000000" fill-rule="nonzero" opacity="1" stroke="none" vectornator:layerName="Curva"/>
<path d="M1476.42 544.166L1491.23 544.166L1491.23 547.176L1479.92 547.176L1479.92 554.631L1490.25 554.631L1490.25 557.641L1479.92 557.641L1479.92 565.656L1491.4 565.656L1491.4 568.666L1476.42 568.666L1476.42 544.166Z" fill="#000000" fill-rule="nonzero" opacity="1" stroke="none" vectornator:layerName="Curva"/>
<path d="M1496.9 544.411C1497.39 544.317 1497.93 544.236 1498.53 544.166C1499.12 544.096 1499.72 544.037 1500.33 543.991C1500.94 543.944 1501.54 543.909 1502.15 543.886C1502.76 543.862 1503.33 543.851 1503.86 543.851C1505.03 543.851 1506.16 543.967 1507.24 544.201C1508.33 544.434 1509.28 544.819 1510.11 545.356C1510.94 545.892 1511.6 546.592 1512.11 547.456C1512.61 548.319 1512.86 549.381 1512.86 550.641C1512.86 551.621 1512.71 552.507 1512.4 553.301C1512.1 554.094 1511.68 554.794 1511.14 555.401C1510.61 556.007 1509.97 556.515 1509.24 556.923C1508.5 557.332 1507.7 557.641 1506.84 557.851L1508.66 559.076L1515.24 568.666L1511.21 568.666L1503.93 558.341L1500.4 557.851L1500.4 568.666L1496.9 568.666L1496.9 544.411ZM1503.97 546.861C1503.64 546.861 1503.31 546.861 1502.97 546.861C1502.63 546.861 1502.3 546.872 1501.97 546.896C1501.65 546.919 1501.34 546.942 1501.06 546.966C1500.78 546.989 1500.56 547.024 1500.4 547.071L1500.4 555.541L1503.27 555.541C1504.11 555.541 1504.88 555.453 1505.6 555.278C1506.31 555.103 1506.93 554.835 1507.45 554.473C1507.98 554.112 1508.39 553.639 1508.69 553.056C1509 552.472 1509.15 551.761 1509.15 550.921C1509.15 549.661 1508.71 548.669 1507.82 547.946C1506.93 547.222 1505.65 546.861 1503.97 546.861Z" fill="#000000" fill-rule="nonzero" opacity="1" stroke="none" vectornator:layerName="Curva"/>
<path d="M1531.2 544.166L1534.7 544.166L1534.7 563.066C1534.7 564.886 1534.23 566.332 1533.28 567.406C1532.34 568.479 1530.94 569.016 1529.1 569.016C1528.87 569.016 1528.59 569.004 1528.28 568.981C1527.96 568.957 1527.64 568.917 1527.31 568.858C1526.99 568.8 1526.67 568.736 1526.37 568.666C1526.07 568.596 1525.81 568.514 1525.6 568.421L1526.26 565.516C1526.92 565.796 1527.7 565.936 1528.61 565.936C1529.66 565.936 1530.35 565.597 1530.69 564.921C1531.03 564.244 1531.2 563.311 1531.2 562.121L1531.2 544.166Z" fill="#000000" fill-rule="nonzero" opacity="1" stroke="none" vectornator:layerName="Curva"/>
<path d="M1556.64 544.166L1559.93 544.166L1559.93 560.161C1559.93 561.677 1559.72 562.984 1559.29 564.081C1558.85 565.177 1558.24 566.093 1557.45 566.828C1556.66 567.563 1555.72 568.106 1554.63 568.456C1553.55 568.806 1552.34 568.981 1551.01 568.981C1547.86 568.981 1545.46 568.298 1543.8 566.933C1542.14 565.568 1541.31 563.544 1541.31 560.861L1541.31 544.166L1544.81 544.166L1544.81 559.531C1544.81 561.911 1545.33 563.567 1546.37 564.501C1547.41 565.434 1548.94 565.901 1550.97 565.901C1552.93 565.901 1554.37 565.387 1555.28 564.361C1556.19 563.334 1556.64 561.689 1556.64 559.426L1556.64 544.166Z" fill="#000000" fill-rule="nonzero" opacity="1" stroke="none" vectornator:layerName="Curva"/>
<path d="M1566.16 544.166C1566.63 544.096 1567.17 544.043 1567.79 544.008C1568.41 543.973 1569.05 543.944 1569.72 543.921C1570.38 543.897 1571.03 543.88 1571.68 543.868C1572.32 543.857 1572.91 543.851 1573.44 543.851C1575.59 543.851 1577.45 544.16 1579.03 544.778C1580.6 545.397 1581.91 546.254 1582.95 547.351C1583.98 548.447 1584.76 549.754 1585.27 551.271C1585.79 552.787 1586.04 554.444 1586.04 556.241C1586.04 557.874 1585.8 559.455 1585.33 560.983C1584.85 562.512 1584.08 563.871 1583.03 565.061C1581.98 566.251 1580.64 567.207 1578.99 567.931C1577.35 568.654 1575.36 569.016 1573.02 569.016C1572.63 569.016 1572.1 569.004 1571.43 568.981C1570.77 568.957 1570.08 568.934 1569.38 568.911C1568.68 568.887 1568.04 568.858 1567.44 568.823C1566.85 568.788 1566.42 568.747 1566.16 568.701L1566.16 544.166ZM1573.55 546.931C1573.22 546.931 1572.87 546.931 1572.5 546.931C1572.13 546.931 1571.75 546.942 1571.38 546.966C1571.01 546.989 1570.67 547.012 1570.36 547.036C1570.06 547.059 1569.83 547.082 1569.66 547.106L1569.66 565.796C1569.78 565.819 1570.01 565.837 1570.35 565.848C1570.68 565.86 1571.04 565.872 1571.41 565.883C1571.79 565.895 1572.14 565.907 1572.46 565.918C1572.79 565.93 1573.02 565.936 1573.16 565.936C1574.91 565.936 1576.38 565.662 1577.56 565.113C1578.73 564.565 1579.68 563.836 1580.39 562.926C1581.1 562.016 1581.6 560.983 1581.9 559.828C1582.19 558.673 1582.33 557.477 1582.33 556.241C1582.33 555.191 1582.19 554.117 1581.91 553.021C1581.63 551.924 1581.16 550.927 1580.48 550.028C1579.8 549.13 1578.9 548.389 1577.78 547.806C1576.66 547.222 1575.25 546.931 1573.55 546.931Z" fill="#000000" fill-rule="nonzero" opacity="1" stroke="none" vectornator:layerName="Curva"/>
<path d="M1593.29 546.476L1590.49 546.476L1590.49 544.166L1599.59 544.166L1599.59 546.476L1596.79 546.476L1596.79 566.356L1599.59 566.356L1599.59 568.666L1590.49 568.666L1590.49 566.356L1593.29 566.356L1593.29 546.476Z" fill="#000000" fill-rule="nonzero" opacity="1" stroke="none" vectornator:layerName="Curva"/>
<path d="M1622.44 567.616C1621.67 568.176 1620.69 568.567 1619.5 568.788C1618.31 569.01 1617.05 569.121 1615.72 569.121C1614.16 569.121 1612.67 568.87 1611.26 568.368C1609.85 567.867 1608.61 567.097 1607.53 566.058C1606.46 565.02 1605.61 563.702 1604.98 562.103C1604.35 560.505 1604.03 558.609 1604.03 556.416C1604.03 554.129 1604.38 552.181 1605.08 550.571C1605.78 548.961 1606.69 547.648 1607.81 546.633C1608.93 545.618 1610.19 544.877 1611.59 544.411C1612.99 543.944 1614.38 543.711 1615.76 543.711C1617.3 543.711 1618.56 543.792 1619.54 543.956C1620.52 544.119 1621.35 544.329 1622.02 544.586L1621.25 547.596C1620.11 547.059 1618.37 546.791 1616.04 546.791C1614.99 546.791 1613.97 546.96 1612.98 547.298C1611.98 547.637 1611.1 548.185 1610.32 548.943C1609.53 549.702 1608.91 550.693 1608.44 551.918C1607.98 553.143 1607.74 554.642 1607.74 556.416C1607.74 558.002 1607.97 559.397 1608.41 560.598C1608.85 561.8 1609.46 562.803 1610.25 563.608C1611.03 564.413 1611.95 565.02 1613.01 565.428C1614.07 565.837 1615.23 566.041 1616.49 566.041C1617.64 566.041 1618.63 565.936 1619.47 565.726C1620.31 565.516 1621.02 565.247 1621.6 564.921L1622.44 567.616Z" fill="#000000" fill-rule="nonzero" opacity="1" stroke="none" vectornator:layerName="Curva"/>
<path d="M1629.06 546.476L1626.26 546.476L1626.26 544.166L1635.36 544.166L1635.36 546.476L1632.56 546.476L1632.56 566.356L1635.36 566.356L1635.36 568.666L1626.26 568.666L1626.26 566.356L1629.06 566.356L1629.06 546.476Z" fill="#000000" fill-rule="nonzero" opacity="1" stroke="none" vectornator:layerName="Curva"/>
<path d="M1653.77 562.261L1644.07 562.261L1641.48 568.666L1638.05 568.666L1648.13 543.816L1649.95 543.816L1660.07 568.666L1656.43 568.666L1653.77 562.261ZM1645.12 559.321L1652.75 559.321L1649.92 552.356L1648.97 548.611L1648.9 548.611L1647.96 552.426L1645.12 559.321ZM1651.49 538.216L1656.11 538.216L1656.11 539.021L1649.88 542.346L1647.05 542.346L1651.49 538.216Z" fill="#000000" fill-rule="nonzero" opacity="1" stroke="none" vectornator:layerName="Curva"/>
<path d="M1663.46 544.411C1663.95 544.317 1664.5 544.236 1665.09 544.166C1665.69 544.096 1666.29 544.037 1666.89 543.991C1667.5 543.944 1668.11 543.909 1668.71 543.886C1669.32 543.862 1669.89 543.851 1670.43 543.851C1671.6 543.851 1672.72 543.967 1673.81 544.201C1674.89 544.434 1675.85 544.819 1676.68 545.356C1677.5 545.892 1678.17 546.592 1678.67 547.456C1679.17 548.319 1679.42 549.381 1679.42 550.641C1679.42 551.621 1679.27 552.507 1678.97 553.301C1678.67 554.094 1678.25 554.794 1677.71 555.401C1677.17 556.007 1676.54 556.515 1675.8 556.923C1675.07 557.332 1674.27 557.641 1673.4 557.851L1675.22 559.076L1681.8 568.666L1677.78 568.666L1670.5 558.341L1666.96 557.851L1666.96 568.666L1663.46 568.666L1663.46 544.411ZM1670.53 546.861C1670.21 546.861 1669.87 546.861 1669.54 546.861C1669.2 546.861 1668.87 546.872 1668.54 546.896C1668.21 546.919 1667.91 546.942 1667.63 546.966C1667.35 546.989 1667.13 547.024 1666.96 547.071L1666.96 555.541L1669.83 555.541C1670.67 555.541 1671.45 555.453 1672.16 555.278C1672.87 555.103 1673.49 554.835 1674.02 554.473C1674.54 554.112 1674.96 553.639 1675.26 553.056C1675.56 552.472 1675.71 551.761 1675.71 550.921C1675.71 549.661 1675.27 548.669 1674.38 547.946C1673.5 547.222 1672.21 546.861 1670.53 546.861Z" fill="#000000" fill-rule="nonzero" opacity="1" stroke="none" vectornator:layerName="Curva"/>
<path d="M1688.42 546.476L1685.62 546.476L1685.62 544.166L1694.72 544.166L1694.72 546.476L1691.92 546.476L1691.92 566.356L1694.72 566.356L1694.72 568.666L1685.62 568.666L1685.62 566.356L1688.42 566.356L1688.42 546.476Z" fill="#000000" fill-rule="nonzero" opacity="1" stroke="none" vectornator:layerName="Curva"/>
<path d="M1699.16 556.416C1699.16 554.409 1699.41 552.618 1699.92 551.043C1700.42 549.468 1701.14 548.138 1702.09 547.053C1703.03 545.968 1704.19 545.14 1705.55 544.568C1706.92 543.997 1708.46 543.711 1710.19 543.711C1712.03 543.711 1713.65 544.02 1715.04 544.638C1716.42 545.257 1717.58 546.12 1718.5 547.228C1719.42 548.337 1720.11 549.672 1720.57 551.236C1721.02 552.799 1721.25 554.526 1721.25 556.416C1721.25 558.422 1721 560.213 1720.5 561.788C1719.99 563.363 1719.27 564.693 1718.31 565.778C1717.35 566.863 1716.19 567.692 1714.83 568.263C1713.46 568.835 1711.92 569.121 1710.19 569.121C1708.32 569.121 1706.7 568.812 1705.32 568.193C1703.95 567.575 1702.8 566.712 1701.89 565.603C1700.98 564.495 1700.3 563.159 1699.85 561.596C1699.39 560.032 1699.16 558.306 1699.16 556.416ZM1702.87 556.416C1702.87 557.746 1703.02 558.994 1703.31 560.161C1703.6 561.327 1704.05 562.354 1704.64 563.241C1705.24 564.127 1705.99 564.827 1706.92 565.341C1707.84 565.854 1708.93 566.111 1710.19 566.111C1712.45 566.111 1714.24 565.329 1715.56 563.766C1716.88 562.202 1717.54 559.752 1717.54 556.416C1717.54 555.109 1717.39 553.872 1717.1 552.706C1716.81 551.539 1716.37 550.512 1715.77 549.626C1715.18 548.739 1714.42 548.033 1713.5 547.508C1712.57 546.983 1711.47 546.721 1710.19 546.721C1707.95 546.721 1706.17 547.514 1704.85 549.101C1703.53 550.687 1702.87 553.126 1702.87 556.416Z" fill="#000000" fill-rule="nonzero" opacity="1" stroke="none" vectornator:layerName="Curva"/>
</g>
</g>
<g opacity="1" vectornator:layerName="Agrupar 2">
<g opacity="1" vectornator:layerName="Agrupar 2">
<path d="M774.399 316.226L880.149 316.226L880.149 337.726L799.399 337.726L799.399 393.476L874.399 393.476L874.399 414.976L799.399 414.976L799.399 491.226L774.399 491.226L774.399 316.226Z" fill="#000000" fill-rule="nonzero" opacity="1" stroke="none" vectornator:layerName="Curva"/>
<path d="M1025.15 316.226L1048.65 316.226L1048.65 430.476C1048.65 441.309 1047.11 450.643 1044.02 458.476C1040.94 466.309 1036.57 472.851 1030.9 478.101C1025.23 483.351 1018.52 487.226 1010.77 489.726C1003.02 492.226 994.399 493.476 984.899 493.476C962.399 493.476 945.232 488.601 933.399 478.851C921.566 469.101 915.649 454.643 915.649 435.476L915.649 316.226L940.649 316.226L940.649 425.976C940.649 442.976 944.357 454.809 951.774 461.476C959.191 468.143 970.149 471.476 984.649 471.476C998.649 471.476 1008.9 467.809 1015.4 460.476C1021.9 453.143 1025.15 441.393 1025.15 425.226L1025.15 316.226Z" fill="#000000" fill-rule="nonzero" opacity="1" stroke="none" vectornator:layerName="Curva"/>
<path d="M1129.65 379.976L1114.65 355.476L1113.65 355.476L1116.65 379.976L1116.65 491.226L1093.15 491.226L1093.15 313.726L1107.15 313.726L1196.4 427.226L1210.65 450.476L1211.9 450.476L1208.9 427.226L1208.9 316.226L1232.4 316.226L1232.4 493.726L1218.4 493.726L1129.65 379.976Z" fill="#000000" fill-rule="nonzero" opacity="1" stroke="none" vectornator:layerName="Curva"/>
<path d="M1362.9 445.226C1362.9 438.393 1360.65 432.976 1356.15 428.976C1351.65 424.976 1345.98 421.518 1339.15 418.601C1332.32 415.684 1324.98 412.934 1317.15 410.351C1309.32 407.768 1301.98 404.476 1295.15 400.476C1288.32 396.476 1282.65 391.309 1278.15 384.976C1273.65 378.643 1271.4 370.393 1271.4 360.226C1271.4 346.059 1276.61 334.643 1287.02 325.976C1297.44 317.309 1312.32 312.976 1331.65 312.976C1342.82 312.976 1353.07 313.809 1362.4 315.476C1371.73 317.143 1379.07 319.309 1384.4 321.976L1376.65 342.976C1372.48 340.809 1366.23 338.851 1357.9 337.101C1349.57 335.351 1340.4 334.476 1330.4 334.476C1319.07 334.476 1310.57 336.893 1304.9 341.726C1299.23 346.559 1296.4 352.143 1296.4 358.476C1296.4 364.976 1298.65 370.226 1303.15 374.226C1307.65 378.226 1313.32 381.768 1320.15 384.851C1326.98 387.934 1334.32 390.893 1342.15 393.726C1349.98 396.559 1357.32 400.059 1364.15 404.226C1370.98 408.393 1376.65 413.518 1381.15 419.601C1385.65 425.684 1387.9 433.476 1387.9 442.976C1387.9 450.809 1386.4 457.893 1383.4 464.226C1380.4 470.559 1376.07 475.976 1370.4 480.476C1364.73 484.976 1357.9 488.434 1349.9 490.851C1341.9 493.268 1332.82 494.476 1322.65 494.476C1308.98 494.476 1297.44 493.434 1288.02 491.351C1278.61 489.268 1271.48 487.059 1266.65 484.726L1274.9 462.976C1279.07 465.143 1285.36 467.351 1293.77 469.601C1302.19 471.851 1311.48 472.976 1321.65 472.976C1327.48 472.976 1332.9 472.434 1337.9 471.351C1342.9 470.268 1347.27 468.601 1351.02 466.351C1354.77 464.101 1357.69 461.226 1359.77 457.726C1361.86 454.226 1362.9 450.059 1362.9 445.226Z" fill="#000000" fill-rule="nonzero" opacity="1" stroke="none" vectornator:layerName="Curva"/>
<path d="M1422.15 316.226L1527.9 316.226L1527.9 337.726L1447.15 337.726L1447.15 390.976L1520.9 390.976L1520.9 412.476L1447.15 412.476L1447.15 469.726L1529.15 469.726L1529.15 491.226L1422.15 491.226L1422.15 316.226Z" fill="#000000" fill-rule="nonzero" opacity="1" stroke="none" vectornator:layerName="Curva"/>
<path d="M1568.4 317.976C1575.4 316.476 1583.02 315.434 1591.27 314.851C1599.52 314.268 1607.65 313.976 1615.65 313.976C1624.15 313.976 1632.77 314.726 1641.52 316.226C1650.27 317.726 1658.23 320.476 1665.4 324.476C1672.57 328.476 1678.44 334.018 1683.02 341.101C1687.61 348.184 1689.9 357.309 1689.9 368.476C1689.9 378.976 1687.82 387.934 1683.65 395.351C1679.48 402.768 1673.94 408.809 1667.02 413.476C1660.11 418.143 1652.19 421.559 1643.27 423.726C1634.36 425.893 1625.15 426.976 1615.65 426.976C1614.65 426.976 1613.11 426.934 1611.02 426.851C1608.94 426.768 1606.77 426.684 1604.52 426.601C1602.27 426.518 1600.11 426.393 1598.02 426.226C1595.94 426.059 1594.4 425.893 1593.4 425.726L1593.4 491.226L1568.4 491.226L1568.4 317.976ZM1616.4 335.476C1611.9 335.476 1607.52 335.559 1603.27 335.726C1599.02 335.893 1595.73 336.309 1593.4 336.976L1593.4 404.226C1594.23 404.559 1595.61 404.768 1597.52 404.851C1599.44 404.934 1601.44 405.059 1603.52 405.226C1605.61 405.393 1607.61 405.476 1609.52 405.476C1611.44 405.476 1612.9 405.476 1613.9 405.476C1619.9 405.476 1625.82 405.018 1631.65 404.101C1637.48 403.184 1642.77 401.393 1647.52 398.726C1652.27 396.059 1656.11 392.309 1659.02 387.476C1661.94 382.643 1663.4 376.393 1663.4 368.726C1663.4 362.059 1661.98 356.559 1659.15 352.226C1656.32 347.893 1652.65 344.476 1648.15 341.976C1643.65 339.476 1638.61 337.768 1633.02 336.851C1627.44 335.934 1621.9 335.476 1616.4 335.476Z" fill="#000000" fill-rule="nonzero" opacity="1" stroke="none" vectornator:layerName="Curva"/>
</g>
</g>
<g opacity="1" vectornator:layerName="Agrupar 1">
<path d="M702.355 250.644C701.339 257.127 699.368 262.532 696.77 268.009C694.173 273.487 690.429 278.792 687.064 283.72C681.056 292.517 672.594 299.455 663.077 304.939C653.56 310.423 642.988 314.453 632.761 317.434C622.604 320.395 612.312 322.899 601.945 325.064C591.577 327.23 581.135 329.057 570.678 330.661C535.076 336.125 499.267 340.23 463.495 344.563C427.724 348.895 391.991 353.454 356.54 359.827C347.509 361.451 337.923 363.376 328.913 366.122C319.903 368.868 313.566 371.285 306.425 376.464C305.325 377.261 302.49 379.781 301.745 381.898C301 384.015 302.201 388.314 303.681 389.882C305.461 391.442 306.444 391.883 308.769 392.961C311.095 394.04 312.209 394.298 314.382 394.985C323.148 397.759 335.378 398.392 339.127 398.694C342.875 398.997 354.796 400.109 363.521 400.533C383.591 401.506 403.685 402.033 423.783 402.225C443.881 402.418 463.985 402.277 484.075 401.916C515.359 401.354 546.53 400.837 577.697 400.172C608.864 399.508 640.026 398.695 671.294 397.542C669.883 403.893 666.716 420.575 665.428 427.175C665.035 429.186 664.772 430.427 664.668 431.22C664.43 433.031 663.993 432.507 657.421 433.472C613.198 439.963 569.818 446.687 527.184 452.553C484.551 458.419 441.893 464.137 397.743 471.11C389.154 472.466 380.574 474.054 372.082 476.002C363.59 477.95 355.188 480.257 346.954 483.053C342.713 484.493 338.381 486.153 334.352 488.277C330.323 490.402 326.599 492.993 323.574 496.295C321.443 498.623 319.681 501.641 318.661 504.838C317.641 508.035 317.363 511.41 318.199 514.454C319.184 518.044 321.211 521.451 323.843 524.335C326.475 527.218 329.713 529.578 333.122 531.074C345.239 536.389 357.892 540.261 370.678 543.772C383.465 547.283 396.385 550.433 409.038 554.305L406.176 566.633L403.211 577.902C380.229 575.004 361.125 572.413 341.815 569.139C322.506 565.864 305.543 562.416 286.405 558.275C279.799 556.846 273.267 555.028 266.838 552.892C260.408 550.756 254.081 548.302 247.886 545.6C242.012 543.038 236.096 540.383 230.411 537.35C224.727 534.317 219.273 530.908 214.322 526.838C209.92 523.22 205.581 519.233 201.819 514.826C198.056 510.419 194.87 505.593 192.775 500.294C191.135 496.147 190.467 491.546 190.602 486.938C190.736 482.331 191.674 477.716 193.244 473.543C195.241 468.234 198.119 463.235 201.554 458.617C204.99 454 208.982 449.764 213.209 445.982C218.064 441.638 223.141 438.25 229.569 434.605C235.997 430.959 241.08 429.123 246.654 425.751C230.435 420.624 209.064 415.899 192.775 410.973C176.485 406.047 175.496 405.456 159.553 399.522C155.086 397.859 140.509 391.247 136.373 388.799C132.236 386.351 128.323 383.53 124.748 380.378C121.624 377.623 118.406 374.616 115.726 371.285C113.047 367.954 110.906 364.298 109.936 360.247C108.873 355.807 108.747 351.066 109.385 346.409C110.024 341.753 111.428 337.179 113.425 333.073C115.597 328.605 118.655 324.595 122.181 320.982C125.708 317.368 129.703 314.152 133.751 311.271C139.061 307.492 144.731 304.208 150.607 301.318C156.484 298.428 162.566 295.933 168.701 293.733C177.54 290.564 186.518 287.697 195.601 285.242C204.685 282.787 213.875 280.742 223.141 279.216C242.967 275.949 262.87 273.024 282.831 270.606C302.792 268.188 322.81 266.277 342.865 265.041C400.582 261.481 458.352 258.905 516.139 256.683C573.926 254.462 595.839 252.771 663.077 251.478C672.707 251.293 675.102 251.346 684.343 251.126C693.585 250.906 702.355 250.644 702.355 250.644Z" fill="#5d9eca" fill-rule="nonzero" opacity="1" stroke="none" vectornator:layerName="Curva"/>
<path d="M423.218 122.512C449.971 124.239 469.186 139.697 477.323 165.13C488.121 198.881 457.248 239.624 419.874 236.588C365.99 232.21 340.867 171.791 383.13 135.778C395.215 125.48 407.788 121.516 423.218 122.512Z" fill="#5d9eca" fill-rule="nonzero" opacity="1" stroke="none" vectornator:layerName="Curva"/>
<path d="M522.214 681.628C522.829 681.936 522.829 681.936 523.444 682.243C522.829 682.551 522.829 682.551 522.214 682.858C522.214 682.243 522.214 682.243 522.214 681.628Z" fill="#5d9eca" fill-rule="nonzero" opacity="1" stroke="none" vectornator:layerName="Curva"/>
<path d="M522.214 627.5C522.829 627.808 522.829 627.808 523.444 628.115C522.829 628.423 522.829 628.423 522.214 628.731C522.214 628.115 522.214 628.115 522.214 627.5Z" fill="#5d9eca" fill-rule="nonzero" opacity="1" stroke="none" vectornator:layerName="Curva"/>
<path d="M522.214 602.897C522.829 603.204 522.829 603.204 523.444 603.512C522.829 603.819 522.829 603.819 522.214 604.127C522.214 603.512 522.214 603.512 522.214 602.897Z" fill="#5d9eca" fill-rule="nonzero" opacity="1" stroke="none" vectornator:layerName="Curva"/>
</g>
</g>
</svg>
