<?xml version="1.0" encoding="UTF-8" standalone="no"?>
<!DOCTYPE svg PUBLIC "-//W3C//DTD SVG 1.1//EN" "http://www.w3.org/Graphics/SVG/1.1/DTD/svg11.dtd">
<!-- Created with Vectornator (http://vectornator.io/) -->
<svg width="100%" height="100%" preserveAspectRatio="xMidYMid meet" stroke-miterlimit="10" style="fill-rule:nonzero;clip-rule:evenodd;stroke-linecap:round;stroke-linejoin:round;" version="1.1" viewBox="0 0 1024 1024" xml:space="preserve" xmlns="http://www.w3.org/2000/svg" xmlns:vectornator="http://vectornator.io" xmlns:xlink="http://www.w3.org/1999/xlink">
<defs/>
<g id="Camada-1" vectornator:layerName="Camada 1">
<g opacity="1" vectornator:layerName="Agrupar 1">
<path d="M972.713 317.447C971.103 327.717 967.98 336.278 963.866 344.954C959.752 353.63 953.822 362.033 948.491 369.839C938.975 383.774 925.571 394.764 910.496 403.45C895.422 412.137 878.676 418.52 862.476 423.242C846.388 427.931 830.085 431.898 813.664 435.328C797.242 438.758 780.702 441.652 764.139 444.194C707.745 452.849 651.024 459.351 594.363 466.213C537.702 473.076 481.1 480.298 424.947 490.392C410.642 492.963 395.459 496.013 381.187 500.363C366.914 504.713 356.877 508.54 345.565 516.744C343.824 518.007 339.333 521.998 338.153 525.352C336.972 528.706 338.876 535.514 341.22 537.999C344.039 540.469 345.596 541.167 349.279 542.876C352.962 544.584 354.727 544.993 358.169 546.082C372.055 550.475 391.427 551.477 397.364 551.957C403.302 552.437 422.185 554.198 436.005 554.869C467.796 556.411 499.623 557.245 531.459 557.55C563.294 557.855 595.138 557.631 626.96 557.06C676.513 556.169 725.888 555.351 775.256 554.298C824.623 553.245 873.985 551.959 923.512 550.132C921.278 560.192 916.26 586.615 914.22 597.07C913.599 600.255 913.182 602.221 913.017 603.478C912.64 606.345 911.947 605.515 901.537 607.044C831.489 617.325 762.775 627.976 695.245 637.268C627.714 646.56 560.145 655.616 490.213 666.661C476.607 668.81 463.016 671.326 449.565 674.411C436.115 677.496 422.805 681.151 409.762 685.58C403.046 687.861 396.183 690.489 389.801 693.855C383.42 697.221 377.52 701.324 372.73 706.555C369.353 710.242 366.563 715.023 364.948 720.086C363.332 725.15 362.892 730.497 364.215 735.318C365.776 741.004 368.986 746.401 373.155 750.969C377.325 755.536 382.454 759.274 387.854 761.643C407.047 770.063 427.088 776.196 447.342 781.758C467.596 787.319 488.061 792.308 508.103 798.441L503.57 817.969C503.57 817.969 498.873 835.818 498.873 835.818C462.47 831.229 432.209 827.124 401.623 821.938C371.037 816.751 344.169 811.29 313.854 804.73C303.391 802.466 293.044 799.586 282.86 796.203C272.676 792.82 262.654 788.933 252.841 784.653C243.536 780.595 234.166 776.389 225.161 771.585C216.157 766.782 207.518 761.381 199.676 754.934C192.704 749.203 185.831 742.888 179.871 735.908C173.911 728.928 168.865 721.282 165.545 712.889C162.948 706.321 161.89 699.033 162.103 691.734C162.317 684.435 163.802 677.126 166.289 670.515C169.453 662.106 174.011 654.188 179.452 646.874C184.894 639.56 191.218 632.851 197.913 626.86C205.603 619.979 213.645 614.612 223.827 608.838C234.008 603.064 242.061 600.155 250.89 594.815C225.198 586.692 191.347 579.209 165.545 571.406C139.743 563.603 138.177 562.667 112.924 553.268C105.848 550.634 82.7569 540.16 76.2055 536.282C69.6541 532.404 63.4558 527.937 57.7928 522.944C52.8438 518.58 47.7462 513.817 43.5019 508.54C39.2576 503.264 35.8665 497.474 34.3305 491.057C32.6467 484.023 32.4467 476.515 33.4584 469.138C34.47 461.762 36.6934 454.518 39.8563 448.014C43.2974 440.937 48.141 434.585 53.727 428.861C59.3131 423.137 65.6417 418.042 72.053 413.48C80.4637 407.494 89.4451 402.291 98.7533 397.714C108.061 393.137 117.696 389.185 127.414 385.7C141.415 380.679 155.634 376.139 170.023 372.25C184.412 368.361 198.969 365.122 213.645 362.704C245.049 357.531 276.576 352.897 308.193 349.067C339.811 345.237 371.519 342.211 403.286 340.251C494.709 334.613 586.215 330.533 677.749 327.014C769.284 323.495 803.992 320.817 910.496 318.769C925.751 318.476 929.544 318.559 944.182 318.211C958.821 317.863 972.713 317.447 972.713 317.447Z" fill="#5d9eca" fill-rule="nonzero" opacity="1" stroke="none" vectornator:layerName="Curva"/>
<path d="M530.564 114.489C572.94 117.225 603.377 141.709 616.266 181.994C633.37 235.455 584.466 299.993 525.266 295.183C439.915 288.248 400.122 192.546 467.065 135.502C486.208 119.19 506.123 112.911 530.564 114.489Z" fill="#5d9eca" fill-rule="nonzero" opacity="1" stroke="none" vectornator:layerName="Curva"/>
<path d="M687.372 1000.12C688.346 1000.61 688.346 1000.61 689.321 1001.09C688.346 1001.58 688.346 1001.58 687.372 1002.07C687.372 1001.09 687.372 1001.09 687.372 1000.12Z" fill="#5d9eca" fill-rule="nonzero" opacity="1" stroke="none" vectornator:layerName="Curva"/>
<path d="M687.372 914.382C688.346 914.869 688.346 914.869 689.321 915.356C688.346 915.843 688.346 915.843 687.372 916.33C687.372 915.356 687.372 915.356 687.372 914.382Z" fill="#5d9eca" fill-rule="nonzero" opacity="1" stroke="none" vectornator:layerName="Curva"/>
<path d="M687.372 875.41C688.346 875.897 688.346 875.897 689.321 876.384C688.346 876.872 688.346 876.872 687.372 877.359C687.372 876.384 687.372 876.384 687.372 875.41Z" fill="#5d9eca" fill-rule="nonzero" opacity="1" stroke="none" vectornator:layerName="Curva"/>
</g>
</g>
</svg>
